Light Narrow — SC 0.ufo
<glyph name="a.sc" format="1">
  <advance width="1094"/>
  <outline>
    <contour>
      <point x="-97" y="62" type="line"/>
      <point x="-103" y="0" type="line"/>
      <point x="292" y="0" type="line"/>
      <point x="297" y="62" type="line"/>
      <point x="147" y="84" type="line"/>
      <point x="576" y="1067" type="line"/>
      <point x="663" y="1245" type="line"/>
      <point x="625" y="1251" type="line"/>
      <point x="642" y="1076" type="line"/>
      <point x="788" y="82" type="line"/>
      <point x="643" y="62" type="line"/>
      <point x="639" y="0" type="line"/>
      <point x="1075" y="0" type="line"/>
      <point x="1079" y="62" type="line"/>
      <point x="945" y="86" type="line"/>
      <point x="741" y="1303" type="line"/>
      <point x="586" y="1303" type="line"/>
      <point x="17" y="82" type="line"/>
    </contour>
    <contour>
      <point x="237" y="474" type="line"/>
      <point x="219" y="386" type="line"/>
      <point x="774" y="386" type="line"/>
      <point x="775" y="474" type="line"/>
    </contour>
    <contour>
      <point x="465" y="-121" type="move" name="bottom"/>
    </contour>
    <contour>
      <point x="876" y="-121" type="move" name="ogonek"/>
    </contour>
    <contour>
      <point x="661" y="1292" type="move" name="top"/>
    </contour>
  </outline>
</glyph>
<glyph name="ae.sc" format="1">
  <advance width="1527"/>
  <outline>
    <contour>
      <point x="565" y="62" type="line"/>
      <point x="556" y="0" type="line"/>
      <point x="1396" y="0" type="line"/>
      <point x="1454" y="270" type="line"/>
      <point x="1368" y="290" type="line"/>
      <point x="1287" y="102" type="line"/>
      <point x="828" y="84" type="line"/>
      <point x="894" y="620" type="line"/>
      <point x="1252" y="608" type="line"/>
      <point x="1266" y="732" type="line"/>
      <point x="902" y="712" type="line"/>
      <point x="967" y="1214" type="line"/>
      <point x="1334" y="1204" type="line"/>
      <point x="1361" y="1036" type="line"/>
      <point x="1449" y="1036" type="line"/>
      <point x="1459" y="1292" type="line"/>
      <point x="349" y="1292" type="line"/>
      <point x="339" y="1220" type="line"/>
      <point x="588" y="1204" type="line"/>
      <point x="6" y="82" type="line"/>
      <point x="-128" y="62" type="line"/>
      <point x="-138" y="0" type="line"/>
      <point x="324" y="0" type="line"/>
      <point x="328" y="62" type="line"/>
      <point x="150" y="84" type="line"/>
      <point x="309" y="416" type="line"/>
      <point x="714" y="416" type="line"/>
      <point x="675" y="82" type="line"/>
    </contour>
    <contour>
      <point x="353" y="504" type="line"/>
      <point x="698" y="1206" type="line"/>
      <point x="808" y="1202" type="line"/>
      <point x="723" y="504" type="line"/>
    </contour>
    <contour>
      <point x="951" y="1292" type="move" name="top"/>
    </contour>
  </outline>
</glyph>
<glyph name="b.sc" format="1">
  <advance width="1061"/>
  <outline>
    <contour>
      <point x="419" y="-12" type="curve"/>
      <point x="728" y="-12"/>
      <point x="974" y="108"/>
      <point x="974" y="418" type="curve"/>
      <point x="975" y="563"/>
      <point x="864" y="669"/>
      <point x="720" y="686" type="curve"/>
      <point x="887" y="732"/>
      <point x="989" y="849"/>
      <point x="988" y="1034" type="curve"/>
      <point x="989" y="1175"/>
      <point x="894" y="1306"/>
      <point x="629" y="1306" type="curve"/>
      <point x="542" y="1306"/>
      <point x="465" y="1294"/>
      <point x="389" y="1292" type="curve"/>
      <point x="179" y="1292" type="line"/>
      <point x="172" y="1222" type="line"/>
      <point x="283" y="1204" type="line"/>
      <point x="134" y="84" type="line"/>
      <point x="14" y="62" type="line"/>
      <point x="8" y="0" type="line"/>
      <point x="195" y="0" type="line" smooth="yes"/>
      <point x="255" y="0"/>
      <point x="352" y="-12"/>
    </contour>
    <contour>
      <point x="450" y="75" type="curve"/>
      <point x="400" y="75"/>
      <point x="262" y="83"/>
      <point x="275" y="98" type="curve"/>
      <point x="276" y="17" type="line"/>
      <point x="443" y="1285" type="line"/>
      <point x="412" y="1208" type="line"/>
      <point x="420" y="1214"/>
      <point x="547" y="1224"/>
      <point x="592" y="1224" type="curve"/>
      <point x="767" y="1224"/>
      <point x="837" y="1152"/>
      <point x="839" y="1017" type="curve"/>
      <point x="839" y="800"/>
      <point x="700" y="715"/>
      <point x="543" y="715" type="curve"/>
      <point x="497" y="715"/>
      <point x="381" y="714"/>
      <point x="330" y="714" type="curve"/>
      <point x="318" y="621" type="line"/>
      <point x="357" y="622"/>
      <point x="473" y="623"/>
      <point x="557" y="623" type="curve"/>
      <point x="725" y="623"/>
      <point x="811" y="551"/>
      <point x="812" y="403" type="curve"/>
      <point x="814" y="160"/>
      <point x="662" y="75"/>
    </contour>
    <contour>
      <point x="470" y="0" type="move" name="bottom"/>
    </contour>
    <contour>
      <point x="616" y="1292" type="move" name="top"/>
    </contour>
  </outline>
</glyph>
<glyph name="c.sc" format="1">
  <advance width="1014"/>
  <outline>
    <contour>
      <point x="505" y="-14" type="curve"/>
      <point x="681" y="-14"/>
      <point x="811" y="41"/>
      <point x="877" y="66" type="curve"/>
      <point x="911" y="342" type="line"/>
      <point x="819" y="342" type="line"/>
      <point x="774" y="167"/>
      <point x="784" y="222"/>
      <point x="764" y="156" type="curve"/>
      <point x="716" y="98"/>
      <point x="606" y="74"/>
      <point x="531" y="74" type="curve"/>
      <point x="318" y="74"/>
      <point x="239" y="312"/>
      <point x="236" y="548" type="curve"/>
      <point x="232" y="846"/>
      <point x="370" y="1222"/>
      <point x="672" y="1222" type="curve"/>
      <point x="767" y="1222"/>
      <point x="815" y="1204"/>
      <point x="852" y="1180" type="curve"/>
      <point x="863" y="944" type="line"/>
      <point x="960" y="944" type="line"/>
      <point x="1012" y="1255" type="line"/>
      <point x="930" y="1281"/>
      <point x="846" y="1306"/>
      <point x="692" y="1306" type="curve"/>
      <point x="350" y="1306"/>
      <point x="66" y="1002"/>
      <point x="70" y="534" type="curve"/>
      <point x="72" y="266"/>
      <point x="191" y="-14"/>
    </contour>
    <contour>
      <point x="509" y="0" type="move" name="bottom"/>
    </contour>
    <contour>
      <point x="636" y="1307" type="move" name="top"/>
    </contour>
  </outline>
</glyph>
<glyph name="d.sc" format="1">
  <advance width="1170"/>
  <outline>
    <contour>
      <point x="461" y="-14" type="curve"/>
      <point x="885" y="-14"/>
      <point x="1109" y="334"/>
      <point x="1117" y="783" type="curve"/>
      <point x="1122" y="1090"/>
      <point x="984" y="1306"/>
      <point x="646" y="1306" type="curve"/>
      <point x="563" y="1306"/>
      <point x="481" y="1294"/>
      <point x="403" y="1292" type="curve"/>
      <point x="180" y="1292" type="line"/>
      <point x="174" y="1222" type="line"/>
      <point x="283" y="1204" type="line"/>
      <point x="134" y="84" type="line"/>
      <point x="13" y="62" type="line"/>
      <point x="4" y="0" type="line"/>
      <point x="208" y="0" type="line" smooth="yes"/>
      <point x="295" y="0"/>
      <point x="394" y="-14"/>
    </contour>
    <contour>
      <point x="492" y="72" type="curve"/>
      <point x="434" y="72"/>
      <point x="305" y="83"/>
      <point x="257" y="103" type="curve"/>
      <point x="279" y="20" type="line"/>
      <point x="447" y="1280" type="line"/>
      <point x="407" y="1202" type="line"/>
      <point x="448" y="1209"/>
      <point x="538" y="1224"/>
      <point x="613" y="1224" type="curve"/>
      <point x="865" y="1224"/>
      <point x="964" y="1079"/>
      <point x="959" y="770" type="curve"/>
      <point x="953" y="438"/>
      <point x="810" y="73"/>
    </contour>
    <contour>
      <point x="477" y="0" type="move" name="bottom"/>
    </contour>
    <contour>
      <point x="644" y="1292" type="move" name="top"/>
    </contour>
  </outline>
</glyph>
<glyph name="e.sc" format="1">
  <advance width="1017"/>
  <outline>
    <contour>
      <point x="955" y="1292" type="line"/>
      <point x="183" y="1292" type="line"/>
      <point x="174" y="1222" type="line"/>
      <point x="285" y="1204" type="line"/>
      <point x="136" y="82" type="line"/>
      <point x="13" y="62" type="line"/>
      <point x="4" y="0" type="line"/>
      <point x="872" y="0" type="line"/>
      <point x="945" y="282" type="line"/>
      <point x="860" y="305" type="line"/>
      <point x="766" y="104" type="line"/>
      <point x="289" y="87" type="line"/>
      <point x="360" y="623" type="line"/>
      <point x="747" y="609" type="line"/>
      <point x="757" y="725" type="line"/>
      <point x="373" y="718" type="line"/>
      <point x="441" y="1216" type="line"/>
      <point x="830" y="1205" type="line"/>
      <point x="855" y="1023" type="line"/>
      <point x="942" y="1023" type="line"/>
    </contour>
    <contour>
      <point x="475" y="0" type="move" name="bottom"/>
    </contour>
    <contour>
      <point x="773" y="0" type="move" name="ogonek"/>
    </contour>
    <contour>
      <point x="602" y="1292" type="move" name="top"/>
    </contour>
  </outline>
</glyph>
<glyph name="ezh.sc" format="1">
  <advance width="970"/>
  <outline>
    <contour>
      <point x="367" y="-10" type="curve"/>
      <point x="693" y="-10"/>
      <point x="898" y="184"/>
      <point x="902" y="442" type="curve"/>
      <point x="905" y="657"/>
      <point x="739" y="765"/>
      <point x="520" y="758" type="curve"/>
      <point x="480" y="695" type="line"/>
      <point x="934" y="1218" type="line"/>
      <point x="944" y="1292" type="line"/>
      <point x="220" y="1292" type="line"/>
      <point x="192" y="990" type="line"/>
      <point x="280" y="990" type="line"/>
      <point x="329" y="1178" type="line"/>
      <point x="764" y="1178" type="line"/>
      <point x="662" y="1052" type="line"/>
      <point x="344" y="672" type="line"/>
      <point x="374" y="634" type="line"/>
      <point x="408" y="646"/>
      <point x="441" y="656"/>
      <point x="490" y="656" type="curve"/>
      <point x="648" y="653"/>
      <point x="741" y="570"/>
      <point x="739" y="424" type="curve"/>
      <point x="736" y="253"/>
      <point x="622" y="80"/>
      <point x="393" y="80" type="curve"/>
      <point x="258" y="80"/>
      <point x="193" y="120"/>
      <point x="193" y="128" type="curve"/>
      <point x="182" y="342" type="line"/>
      <point x="105" y="342" type="line"/>
      <point x="55" y="52" type="line" smooth="yes"/>
      <point x="61" y="50"/>
      <point x="217" y="-10"/>
    </contour>
  </outline>
</glyph>
<glyph name="f.sc" format="1">
  <advance width="953"/>
  <outline>
    <contour>
      <point x="14" y="62" type="line"/>
      <point x="7" y="0" type="line"/>
      <point x="479" y="0" type="line"/>
      <point x="486" y="62" type="line"/>
      <point x="288" y="86" type="line"/>
      <point x="358" y="618" type="line"/>
      <point x="765" y="603" type="line"/>
      <point x="777" y="722" type="line"/>
      <point x="372" y="715" type="line"/>
      <point x="438" y="1214" type="line"/>
      <point x="848" y="1202" type="line"/>
      <point x="864" y="1022" type="line"/>
      <point x="960" y="1022" type="line"/>
      <point x="982" y="1292" type="line"/>
      <point x="181" y="1292" type="line"/>
      <point x="172" y="1222" type="line"/>
      <point x="284" y="1204" type="line"/>
      <point x="134" y="84" type="line"/>
    </contour>
    <contour>
      <point x="610" y="1292" type="move" name="top"/>
    </contour>
  </outline>
</glyph>
<glyph name="g.sc" format="1">
  <advance width="1108"/>
  <outline>
    <contour>
      <point x="502" y="-14" type="curve"/>
      <point x="634" y="-14"/>
      <point x="748" y="25"/>
      <point x="832" y="51" type="curve"/>
      <point x="876" y="65"/>
      <point x="915" y="76"/>
      <point x="946" y="79" type="curve"/>
      <point x="1022" y="618" type="line"/>
      <point x="647" y="618" type="line"/>
      <point x="638" y="534" type="line"/>
      <point x="852" y="520" type="line"/>
      <point x="803" y="150" type="line"/>
      <point x="742" y="96"/>
      <point x="630" y="72"/>
      <point x="541" y="72" type="curve"/>
      <point x="334" y="72"/>
      <point x="246" y="306"/>
      <point x="244" y="550" type="curve"/>
      <point x="244" y="856"/>
      <point x="381" y="1224"/>
      <point x="686" y="1224" type="curve"/>
      <point x="803" y="1224"/>
      <point x="863" y="1202"/>
      <point x="910" y="1169" type="curve"/>
      <point x="913" y="994" type="line"/>
      <point x="1013" y="994" type="line"/>
      <point x="1062" y="1250" type="line"/>
      <point x="996" y="1250"/>
      <point x="923" y="1306"/>
      <point x="699" y="1306" type="curve"/>
      <point x="354" y="1306"/>
      <point x="79" y="998"/>
      <point x="83" y="532" type="curve"/>
      <point x="86" y="266"/>
      <point x="206" y="-14"/>
    </contour>
    <contour>
      <point x="551" y="0" type="move" name="bottom"/>
    </contour>
    <contour>
      <point x="694" y="1292" type="move" name="top"/>
    </contour>
  </outline>
</glyph>
<glyph name="germandbls.sc" format="1">
  <advance width="1159"/>
  <outline>
    <contour>
      <point x="699" y="-18" type="curve"/>
      <point x="935" y="-18"/>
      <point x="1064" y="211"/>
      <point x="1070" y="396" type="curve"/>
      <point x="1079" y="666"/>
      <point x="884" y="761"/>
      <point x="749" y="758" type="curve"/>
      <point x="1031" y="1113" type="line"/>
      <point x="1053" y="1201" type="line"/>
      <point x="995" y="1247"/>
      <point x="913" y="1301"/>
      <point x="719" y="1301" type="curve"/>
      <point x="428" y="1301"/>
      <point x="240" y="1060"/>
      <point x="198" y="775" type="curve"/>
      <point x="105" y="92" type="line"/>
      <point x="3" y="73" type="line"/>
      <point x="-2" y="0" type="line"/>
      <point x="249" y="0" type="line"/>
      <point x="346" y="711" type="line" smooth="yes"/>
      <point x="392" y="1068"/>
      <point x="503" y="1221"/>
      <point x="692" y="1221" type="curve"/>
      <point x="831" y="1219"/>
      <point x="908" y="1172"/>
      <point x="928" y="1130" type="curve"/>
      <point x="650" y="774" type="line"/>
      <point x="640" y="704" type="line"/>
      <point x="783" y="709"/>
      <point x="929" y="620"/>
      <point x="922" y="387" type="curve"/>
      <point x="915" y="199"/>
      <point x="828" y="63"/>
      <point x="714" y="63" type="curve"/>
      <point x="635" y="63"/>
      <point x="563" y="96"/>
      <point x="545" y="131" type="curve"/>
      <point x="532" y="273" type="line"/>
      <point x="446" y="273" type="line"/>
      <point x="414" y="54" type="line"/>
      <point x="460" y="48"/>
      <point x="549" y="-18"/>
    </contour>
  </outline>
</glyph>
<glyph name="h.sc" format="1">
  <advance width="1255"/>
  <outline>
    <contour>
      <point x="15" y="62" type="line"/>
      <point x="7" y="0" type="line"/>
      <point x="407" y="0" type="line"/>
      <point x="415" y="62" type="line"/>
      <point x="286" y="84" type="line"/>
      <point x="435" y="1204" type="line"/>
      <point x="560" y="1222" type="line"/>
      <point x="569" y="1292" type="line"/>
      <point x="177" y="1292" type="line"/>
      <point x="169" y="1222" type="line"/>
      <point x="281" y="1204" type="line"/>
      <point x="132" y="84" type="line"/>
    </contour>
    <contour>
      <point x="316" y="705" type="line"/>
      <point x="315" y="613" type="line"/>
      <point x="964" y="613" type="line"/>
      <point x="966" y="705" type="line"/>
    </contour>
    <contour>
      <point x="709" y="62" type="line"/>
      <point x="706" y="0" type="line"/>
      <point x="1109" y="0" type="line"/>
      <point x="1119" y="62" type="line"/>
      <point x="996" y="84" type="line"/>
      <point x="1144" y="1204" type="line"/>
      <point x="1260" y="1222" type="line"/>
      <point x="1268" y="1292" type="line"/>
      <point x="876" y="1292" type="line"/>
      <point x="868" y="1222" type="line"/>
      <point x="990" y="1204" type="line"/>
      <point x="843" y="84" type="line"/>
    </contour>
    <contour>
      <point x="568" y="0" type="move" name="bottom"/>
    </contour>
    <contour>
      <point x="729" y="1292" type="move" name="top"/>
    </contour>
  </outline>
</glyph>
<glyph name="i.sc" format="1">
  <advance width="577"/>
  <outline>
    <contour>
      <point x="25" y="62" type="line"/>
      <point x="19" y="0" type="line"/>
      <point x="423" y="0" type="line"/>
      <point x="429" y="62" type="line"/>
      <point x="299" y="88" type="line"/>
      <point x="448" y="1204" type="line"/>
      <point x="573" y="1222" type="line"/>
      <point x="582" y="1292" type="line"/>
      <point x="192" y="1292" type="line"/>
      <point x="183" y="1222" type="line"/>
      <point x="295" y="1204" type="line"/>
      <point x="147" y="88" type="line"/>
    </contour>
    <contour>
      <point x="223" y="0" type="move" name="bottom"/>
    </contour>
    <contour>
      <point x="310" y="0" type="move" name="ogonek"/>
    </contour>
    <contour>
      <point x="403" y="1383" type="move" name="top"/>
    </contour>
  </outline>
</glyph>
<glyph name="j.sc" format="1">
  <advance width="575"/>
  <outline>
    <contour>
      <point x="455" y="1206" type="curve"/>
      <point x="591" y="1222" type="line"/>
      <point x="600" y="1292" type="line"/>
      <point x="183" y="1292" type="line"/>
      <point x="174" y="1222" type="line"/>
      <point x="306" y="1206" type="line"/>
      <point x="263" y="833"/>
      <point x="208" y="407"/>
      <point x="162" y="131" type="curve"/>
      <point x="141" y="-4"/>
      <point x="48" y="-179"/>
      <point x="-130" y="-231" type="curve"/>
      <point x="-104" y="-292" type="line"/>
      <point x="91" y="-257"/>
      <point x="256" y="-124"/>
      <point x="301" y="107" type="curve"/>
      <point x="318" y="191"/>
      <point x="391" y="717"/>
    </contour>
    <contour>
      <point x="221" y="-142" type="move" name="btm"/>
    </contour>
    <contour>
      <point x="393" y="1292" type="move" name="top"/>
    </contour>
  </outline>
</glyph>
<glyph name="k.sc" format="1">
  <advance width="1123"/>
  <outline>
    <contour>
      <point x="14" y="62" type="line"/>
      <point x="6" y="0" type="line"/>
      <point x="407" y="0" type="line"/>
      <point x="413" y="62" type="line"/>
      <point x="285" y="84" type="line"/>
      <point x="437" y="1204" type="line"/>
      <point x="562" y="1222" type="line"/>
      <point x="570" y="1292" type="line"/>
      <point x="180" y="1292" type="line"/>
      <point x="172" y="1222" type="line"/>
      <point x="283" y="1204" type="line"/>
      <point x="132" y="84" type="line"/>
    </contour>
    <contour>
      <point x="327" y="532" type="line"/>
      <point x="321" y="405" type="line"/>
      <point x="525" y="628" type="line"/>
      <point x="586" y="688" type="line"/>
      <point x="1048" y="1206" type="line"/>
      <point x="1146" y="1222" type="line"/>
      <point x="1156" y="1292" type="line"/>
      <point x="809" y="1292" type="line"/>
      <point x="799" y="1222" type="line"/>
      <point x="914" y="1204" type="line"/>
    </contour>
    <contour>
      <point x="835" y="0" type="curve"/>
      <point x="1060" y="0" type="line"/>
      <point x="1071" y="68" type="line"/>
      <point x="964" y="97" type="line"/>
      <point x="928" y="118"/>
      <point x="900" y="167"/>
      <point x="796" y="355" type="curve"/>
      <point x="750" y="435"/>
      <point x="633" y="660"/>
      <point x="584" y="738" type="curve"/>
      <point x="485" y="642" type="line"/>
      <point x="545" y="526"/>
      <point x="613" y="396"/>
      <point x="667" y="291" type="curve"/>
      <point x="728" y="168"/>
      <point x="805" y="0"/>
    </contour>
    <contour>
      <point x="546" y="0" type="move" name="bottom"/>
    </contour>
    <contour>
      <point x="683" y="1292" type="move" name="top"/>
    </contour>
  </outline>
</glyph>
<glyph name="l.sc" format="1">
  <advance width="965"/>
  <outline>
    <contour>
      <point x="14" y="62" type="line"/>
      <point x="6" y="0" type="line"/>
      <point x="817" y="0" type="line"/>
      <point x="899" y="380" type="line"/>
      <point x="814" y="395" type="line"/>
      <point x="696" y="91" type="line"/>
      <point x="283" y="84" type="line"/>
      <point x="433" y="1204" type="line"/>
      <point x="576" y="1222" type="line"/>
      <point x="584" y="1292" type="line"/>
      <point x="177" y="1292" type="line"/>
      <point x="169" y="1222" type="line"/>
      <point x="279" y="1204" type="line"/>
      <point x="131" y="84" type="line"/>
    </contour>
    <contour>
      <point x="448" y="0" type="move" name="bottom"/>
    </contour>
    <contour>
      <point x="697" y="966" type="move" name="car"/>
    </contour>
    <contour>
      <point x="384" y="1292" type="move" name="top"/>
    </contour>
  </outline>
</glyph>
<glyph name="m.sc" format="1">
  <advance width="1546"/>
  <outline>
    <contour>
      <point x="-20" y="62" type="line"/>
      <point x="-27" y="0" type="line"/>
      <point x="394" y="0" type="line"/>
      <point x="398" y="62" type="line"/>
      <point x="235" y="84" type="line"/>
      <point x="397" y="876" type="line"/>
      <point x="467" y="1216" type="line"/>
      <point x="519" y="882" type="line"/>
      <point x="654" y="-16" type="line"/>
      <point x="736" y="-4" type="line"/>
      <point x="1130" y="904" type="line"/>
      <point x="1255" y="1218" type="line"/>
      <point x="1232" y="862" type="line"/>
      <point x="1193" y="82" type="line"/>
      <point x="1042" y="64" type="line"/>
      <point x="1036" y="0" type="line"/>
      <point x="1478" y="0" type="line"/>
      <point x="1483" y="62" type="line"/>
      <point x="1344" y="84" type="line"/>
      <point x="1380" y="1204" type="line"/>
      <point x="1526" y="1222" type="line"/>
      <point x="1535" y="1292" type="line"/>
      <point x="1195" y="1292" type="line"/>
      <point x="826" y="370" type="line"/>
      <point x="746" y="173" type="line"/>
      <point x="721" y="416" type="line"/>
      <point x="596" y="1292" type="line"/>
      <point x="230" y="1292" type="line"/>
      <point x="220" y="1222" type="line"/>
      <point x="372" y="1204" type="line"/>
      <point x="119" y="84" type="line"/>
    </contour>
    <contour>
      <point x="683" y="0" type="move" name="bottom"/>
    </contour>
    <contour>
      <point x="873" y="1292" type="move" name="top"/>
    </contour>
  </outline>
</glyph>
<glyph name="n.sc" format="1">
  <advance width="1238"/>
  <outline>
    <contour>
      <point x="14" y="62" type="line"/>
      <point x="6" y="0" type="line"/>
      <point x="384" y="0" type="line"/>
      <point x="392" y="62" type="line"/>
      <point x="250" y="84" type="line"/>
      <point x="383" y="1220" type="line"/>
      <point x="350" y="1216" type="line"/>
      <point x="437" y="957" type="line"/>
      <point x="822" y="0" type="line"/>
      <point x="975" y="0" type="line"/>
      <point x="1146" y="1204" type="line"/>
      <point x="1268" y="1222" type="line"/>
      <point x="1272" y="1292" type="line"/>
      <point x="912" y="1292" type="line"/>
      <point x="904" y="1222" type="line"/>
      <point x="1035" y="1206" type="line"/>
      <point x="893" y="70" type="line"/>
      <point x="927" y="74" type="line"/>
      <point x="839" y="337" type="line"/>
      <point x="460" y="1292" type="line"/>
      <point x="179" y="1292" type="line"/>
      <point x="167" y="1222" type="line"/>
      <point x="281" y="1204" type="line"/>
      <point x="132" y="82" type="line"/>
    </contour>
    <contour>
      <point x="588" y="0" type="move" name="bottom"/>
    </contour>
    <contour>
      <point x="706" y="1292" type="move" name="top"/>
    </contour>
  </outline>
</glyph>
<glyph name="o.sc" format="1">
  <advance width="1138"/>
  <outline>
    <contour>
      <point x="500" y="-18" type="curve"/>
      <point x="850" y="-18"/>
      <point x="1078" y="328"/>
      <point x="1074" y="772" type="curve"/>
      <point x="1071" y="1105"/>
      <point x="920" y="1310"/>
      <point x="662" y="1310" type="curve"/>
      <point x="320" y="1310"/>
      <point x="80" y="972"/>
      <point x="83" y="528" type="curve"/>
      <point x="86" y="216"/>
      <point x="226" y="-18"/>
    </contour>
    <contour>
      <point x="519" y="68" type="curve"/>
      <point x="341" y="68"/>
      <point x="242" y="270"/>
      <point x="241" y="546" type="curve"/>
      <point x="240" y="934"/>
      <point x="410" y="1222"/>
      <point x="641" y="1222" type="curve"/>
      <point x="818" y="1222"/>
      <point x="910" y="1036"/>
      <point x="913" y="740" type="curve"/>
      <point x="915" y="356"/>
      <point x="744" y="68"/>
    </contour>
    <contour>
      <point x="501" y="0" type="move" name="bottom"/>
    </contour>
    <contour>
      <point x="592" y="648" type="move" name="center"/>
    </contour>
    <contour>
      <point x="658" y="18" type="move" name="ogonek"/>
    </contour>
    <contour>
      <point x="667" y="1292" type="move" name="top"/>
    </contour>
    <contour>
      <point x="146" y="1292" type="move" name="topleft"/>
    </contour>
    <contour>
      <point x="892" y="1232" type="move" name="topright"/>
    </contour>
  </outline>
</glyph>
<glyph name="oe.sc" format="1">
  <advance width="1764"/>
  <outline>
    <contour>
      <point x="509" y="-18" type="curve"/>
      <point x="687" y="-18"/>
      <point x="835" y="86"/>
      <point x="931" y="247" type="curve"/>
      <point x="902" y="0" type="line"/>
      <point x="1633" y="0" type="line"/>
      <point x="1691" y="270" type="line"/>
      <point x="1606" y="290" type="line"/>
      <point x="1527" y="102" type="line"/>
      <point x="1049" y="87" type="line"/>
      <point x="1115" y="624" type="line"/>
      <point x="1486" y="611" type="line"/>
      <point x="1501" y="734" type="line"/>
      <point x="1125" y="713" type="line"/>
      <point x="1188" y="1216" type="line"/>
      <point x="1573" y="1204" type="line"/>
      <point x="1602" y="1036" type="line"/>
      <point x="1688" y="1036" type="line"/>
      <point x="1698" y="1292" type="line"/>
      <point x="1058" y="1292" type="line"/>
      <point x="1024" y="1013" type="line"/>
      <point x="968" y="1191"/>
      <point x="851" y="1308"/>
      <point x="668" y="1308" type="curve"/>
      <point x="329" y="1308"/>
      <point x="79" y="978"/>
      <point x="83" y="528" type="curve"/>
      <point x="86" y="179"/>
      <point x="252" y="-18"/>
    </contour>
    <contour>
      <point x="528" y="69" type="curve"/>
      <point x="330" y="69"/>
      <point x="242" y="278"/>
      <point x="241" y="583" type="curve"/>
      <point x="240" y="942"/>
      <point x="417" y="1220"/>
      <point x="649" y="1220" type="curve"/>
      <point x="827" y="1220"/>
      <point x="923" y="1069"/>
      <point x="925" y="744" type="curve"/>
      <point x="927" y="356"/>
      <point x="763" y="69"/>
    </contour>
  </outline>
</glyph>
<glyph name="p.sc" format="1">
  <advance width="995"/>
  <outline>
    <contour>
      <point x="14" y="62" type="line"/>
      <point x="7" y="0" type="line"/>
      <point x="441" y="0" type="line"/>
      <point x="449" y="62" type="line"/>
      <point x="288" y="84" type="line"/>
      <point x="448" y="1281" type="line"/>
      <point x="404" y="1203" type="line"/>
      <point x="436" y="1210"/>
      <point x="544" y="1224"/>
      <point x="586" y="1224" type="curve"/>
      <point x="752" y="1224"/>
      <point x="828" y="1146"/>
      <point x="825" y="965" type="curve"/>
      <point x="820" y="694"/>
      <point x="710" y="546"/>
      <point x="480" y="546" type="curve"/>
      <point x="437" y="546"/>
      <point x="393" y="550"/>
      <point x="336" y="560" type="curve"/>
      <point x="310" y="466" type="line"/>
      <point x="363" y="464"/>
      <point x="412" y="460"/>
      <point x="473" y="460" type="curve"/>
      <point x="759" y="460"/>
      <point x="982" y="641"/>
      <point x="986" y="973" type="curve"/>
      <point x="989" y="1199"/>
      <point x="856" y="1306"/>
      <point x="611" y="1306" type="curve"/>
      <point x="526" y="1306"/>
      <point x="468" y="1292"/>
      <point x="379" y="1292" type="curve"/>
      <point x="180" y="1292" type="line"/>
      <point x="173" y="1222" type="line"/>
      <point x="284" y="1204" type="line"/>
      <point x="134" y="84" type="line"/>
    </contour>
    <contour>
      <point x="624" y="1292" type="move" name="top"/>
    </contour>
  </outline>
</glyph>
<glyph name="q.sc" format="1">
  <advance width="1134"/>
  <outline>
    <contour>
      <point x="753" y="-312" type="curve"/>
      <point x="856" y="-312"/>
      <point x="952" y="-272"/>
      <point x="992" y="-238" type="curve"/>
      <point x="990" y="-138" type="line"/>
      <point x="941" y="-162"/>
      <point x="860" y="-180"/>
      <point x="802" y="-180" type="curve"/>
      <point x="682" y="-180"/>
      <point x="565" y="-157"/>
      <point x="564" y="-9" type="curve"/>
      <point x="473" y="-13" type="line"/>
      <point x="460" y="-93"/>
      <point x="474" y="-159"/>
      <point x="508" y="-207" type="curve"/>
      <point x="557" y="-277"/>
      <point x="649" y="-312"/>
    </contour>
    <contour>
      <point x="500" y="-18" type="curve"/>
      <point x="850" y="-18"/>
      <point x="1078" y="328"/>
      <point x="1074" y="772" type="curve"/>
      <point x="1071" y="1105"/>
      <point x="920" y="1310"/>
      <point x="662" y="1310" type="curve"/>
      <point x="320" y="1310"/>
      <point x="80" y="972"/>
      <point x="83" y="528" type="curve"/>
      <point x="86" y="216"/>
      <point x="226" y="-18"/>
    </contour>
    <contour>
      <point x="519" y="68" type="curve"/>
      <point x="341" y="68"/>
      <point x="242" y="270"/>
      <point x="241" y="546" type="curve"/>
      <point x="240" y="934"/>
      <point x="410" y="1222"/>
      <point x="641" y="1222" type="curve"/>
      <point x="818" y="1222"/>
      <point x="910" y="1036"/>
      <point x="913" y="740" type="curve"/>
      <point x="915" y="356"/>
      <point x="744" y="68"/>
    </contour>
  </outline>
</glyph>
<glyph name="r.sc" format="1">
  <advance width="1095"/>
  <outline>
    <contour>
      <point x="18" y="62" type="line"/>
      <point x="14" y="0" type="line"/>
      <point x="425" y="0" type="line"/>
      <point x="429" y="62" type="line"/>
      <point x="273" y="84" type="line"/>
      <point x="432" y="1282" type="line"/>
      <point x="378" y="1204" type="line"/>
      <point x="433" y="1213"/>
      <point x="518" y="1224"/>
      <point x="577" y="1224" type="curve"/>
      <point x="748" y="1224"/>
      <point x="820" y="1145"/>
      <point x="818" y="1005" type="curve"/>
      <point x="815" y="820"/>
      <point x="729" y="663"/>
      <point x="541" y="652" type="curve"/>
      <point x="467" y="653"/>
      <point x="394" y="653"/>
      <point x="321" y="654" type="curve"/>
      <point x="305" y="571" type="line"/>
      <point x="375" y="571"/>
      <point x="447" y="571"/>
      <point x="518" y="571" type="curve"/>
      <point x="586" y="569"/>
      <point x="659" y="374"/>
      <point x="725" y="205" type="curve"/>
      <point x="780" y="41"/>
      <point x="811" y="0"/>
      <point x="848" y="0" type="curve"/>
      <point x="1031" y="0" type="line"/>
      <point x="1035" y="70" type="line"/>
      <point x="925" y="70"/>
      <point x="921" y="99"/>
      <point x="840" y="290" type="curve"/>
      <point x="803" y="374"/>
      <point x="712" y="583"/>
      <point x="653" y="600" type="curve"/>
      <point x="621" y="576" type="line"/>
      <point x="849" y="618"/>
      <point x="967" y="789"/>
      <point x="970" y="1015" type="curve"/>
      <point x="973" y="1211"/>
      <point x="848" y="1306"/>
      <point x="607" y="1306" type="curve"/>
      <point x="518" y="1306"/>
      <point x="456" y="1292"/>
      <point x="382" y="1292" type="curve"/>
      <point x="177" y="1292" type="line"/>
      <point x="169" y="1222" type="line"/>
      <point x="278" y="1204" type="line"/>
      <point x="129" y="84" type="line"/>
    </contour>
    <contour>
      <point x="556" y="0" type="move" name="bottom"/>
    </contour>
    <contour>
      <point x="629" y="1292" type="move" name="top"/>
    </contour>
  </outline>
</glyph>
<glyph name="s.sc" format="1">
  <advance width="894"/>
  <outline>
    <contour>
      <point x="377" y="-20" type="curve"/>
      <point x="632" y="-20"/>
      <point x="800" y="135"/>
      <point x="804" y="364" type="curve"/>
      <point x="807" y="557"/>
      <point x="653" y="646"/>
      <point x="542" y="719" type="curve"/>
      <point x="420" y="795"/>
      <point x="305" y="855"/>
      <point x="307" y="1024" type="curve"/>
      <point x="310" y="1164"/>
      <point x="428" y="1223"/>
      <point x="542" y="1223" type="curve"/>
      <point x="635" y="1223"/>
      <point x="691" y="1197"/>
      <point x="724" y="1169" type="curve"/>
      <point x="734" y="1004" type="line"/>
      <point x="818" y="1004" type="line"/>
      <point x="857" y="1230" type="line"/>
      <point x="812" y="1262"/>
      <point x="713" y="1306"/>
      <point x="556" y="1306" type="curve"/>
      <point x="339" y="1306"/>
      <point x="166" y="1178"/>
      <point x="162" y="964" type="curve"/>
      <point x="158" y="753"/>
      <point x="321" y="662"/>
      <point x="441" y="588" type="curve"/>
      <point x="558" y="514"/>
      <point x="652" y="461"/>
      <point x="654" y="294" type="curve"/>
      <point x="646" y="136"/>
      <point x="510" y="64"/>
      <point x="378" y="64" type="curve"/>
      <point x="298" y="64"/>
      <point x="201" y="96"/>
      <point x="175" y="143" type="curve"/>
      <point x="166" y="322" type="line"/>
      <point x="74" y="322" type="line"/>
      <point x="38" y="81" type="line"/>
      <point x="77" y="44"/>
      <point x="220" y="-20"/>
    </contour>
    <contour>
      <point x="379" y="0" type="move" name="bottom"/>
    </contour>
    <contour>
      <point x="555" y="1292" type="move" name="top"/>
    </contour>
  </outline>
</glyph>
<glyph name="schwa.sc" format="1">
  <advance width="1069"/>
  <outline>
    <contour>
      <point x="413" y="-20" type="curve"/>
      <point x="731" y="-20"/>
      <point x="1000" y="314"/>
      <point x="1008" y="772" type="curve"/>
      <point x="1013" y="1102"/>
      <point x="857" y="1306"/>
      <point x="609" y="1306" type="curve"/>
      <point x="370" y="1306"/>
      <point x="282" y="1242"/>
      <point x="191" y="1238" type="curve"/>
      <point x="153" y="988" type="line"/>
      <point x="234" y="988" type="line"/>
      <point x="289" y="1140" type="line"/>
      <point x="332" y="1180"/>
      <point x="424" y="1228"/>
      <point x="565" y="1228" type="curve"/>
      <point x="741" y="1228"/>
      <point x="858" y="1064"/>
      <point x="851" y="750" type="curve"/>
      <point x="851" y="718"/>
      <point x="849" y="686"/>
      <point x="847" y="655" type="curve"/>
      <point x="96" y="654" type="line"/>
      <point x="78" y="608"/>
      <point x="63" y="514"/>
      <point x="62" y="420" type="curve"/>
      <point x="57" y="138"/>
      <point x="188" y="-20"/>
    </contour>
    <contour>
      <point x="451" y="64" type="curve"/>
      <point x="287" y="64"/>
      <point x="210" y="220"/>
      <point x="212" y="392" type="curve"/>
      <point x="213" y="456"/>
      <point x="225" y="518"/>
      <point x="238" y="576" type="curve"/>
      <point x="837" y="576" type="line"/>
      <point x="790" y="232"/>
      <point x="635" y="64"/>
    </contour>
  </outline>
</glyph>
<glyph name="t.sc" format="1">
  <advance width="1043"/>
  <outline>
    <contour>
      <point x="184" y="67" type="line"/>
      <point x="180" y="0" type="line"/>
      <point x="739" y="0" type="line"/>
      <point x="744" y="67" type="line"/>
      <point x="537" y="82" type="line"/>
      <point x="687" y="1216" type="line"/>
      <point x="968" y="1202" type="line"/>
      <point x="959" y="898" type="line"/>
      <point x="1041" y="900" type="line"/>
      <point x="1096" y="1292" type="line"/>
      <point x="139" y="1292" type="line"/>
      <point x="76" y="900" type="line"/>
      <point x="163" y="900" type="line"/>
      <point x="244" y="1202" type="line"/>
      <point x="535" y="1216" type="line"/>
      <point x="385" y="82" type="line"/>
    </contour>
    <contour>
      <point x="453" y="0" type="move" name="bottom"/>
    </contour>
    <contour>
      <point x="618" y="1292" type="move" name="top"/>
    </contour>
  </outline>
</glyph>
<glyph name="u.sc" format="1">
  <advance width="1135"/>
  <outline>
    <contour>
      <point x="500" y="-18" type="curve"/>
      <point x="788" y="-18"/>
      <point x="942" y="134"/>
      <point x="992" y="532" type="curve"/>
      <point x="1078" y="1206" type="line"/>
      <point x="1184" y="1222" type="line"/>
      <point x="1192" y="1292" type="line"/>
      <point x="858" y="1292" type="line"/>
      <point x="852" y="1222" type="line"/>
      <point x="963" y="1204" type="line"/>
      <point x="876" y="532" type="line" smooth="yes"/>
      <point x="839" y="244"/>
      <point x="746" y="62"/>
      <point x="525" y="62" type="curve"/>
      <point x="310" y="62"/>
      <point x="254" y="241"/>
      <point x="289" y="516" type="curve"/>
      <point x="378" y="1204" type="line"/>
      <point x="510" y="1222" type="line"/>
      <point x="516" y="1292" type="line"/>
      <point x="117" y="1292" type="line"/>
      <point x="111" y="1222" type="line"/>
      <point x="223" y="1206" type="line"/>
      <point x="134" y="504" type="line" smooth="yes"/>
      <point x="93" y="177"/>
      <point x="218" y="-18"/>
    </contour>
    <contour>
      <point x="495" y="0" type="move" name="bottom"/>
    </contour>
    <contour>
      <point x="624" y="16" type="move" name="ogonek"/>
    </contour>
    <contour>
      <point x="654" y="1292" type="move" name="top"/>
    </contour>
    <contour>
      <point x="1207" y="1292" type="move" name="topright"/>
    </contour>
  </outline>
</glyph>
<glyph name="v.sc" format="1">
  <advance width="989"/>
  <outline>
    <contour>
      <point x="156" y="1204" type="line"/>
      <point x="344" y="-16" type="line"/>
      <point x="479" y="-8" type="line"/>
      <point x="1010" y="1206" type="line"/>
      <point x="1109" y="1222" type="line"/>
      <point x="1117" y="1292" type="line"/>
      <point x="775" y="1292" type="line"/>
      <point x="768" y="1222" type="line"/>
      <point x="894" y="1204" type="line"/>
      <point x="547" y="389" type="line"/>
      <point x="422" y="68" type="line"/>
      <point x="460" y="64" type="line"/>
      <point x="419" y="389" type="line"/>
      <point x="309" y="1204" type="line"/>
      <point x="453" y="1222" type="line"/>
      <point x="461" y="1292" type="line"/>
      <point x="49" y="1292" type="line"/>
      <point x="42" y="1222" type="line"/>
    </contour>
    <contour>
      <point x="665" y="1444" type="move" name="top"/>
    </contour>
  </outline>
</glyph>
<glyph name="w.sc" format="1">
  <advance width="1481"/>
  <outline>
    <contour>
      <point x="141" y="1204" type="line"/>
      <point x="301" y="-8" type="line"/>
      <point x="447" y="-8" type="line"/>
      <point x="828" y="975" type="line"/>
      <point x="803" y="1169" type="line"/>
      <point x="484" y="332" type="line"/>
      <point x="389" y="70" type="line"/>
      <point x="425" y="66" type="line"/>
      <point x="384" y="376" type="line"/>
      <point x="288" y="1206" type="line"/>
      <point x="432" y="1222" type="line"/>
      <point x="437" y="1292" type="line"/>
      <point x="32" y="1292" type="line"/>
      <point x="25" y="1222" type="line"/>
    </contour>
    <contour>
      <point x="752" y="1206" type="line"/>
      <point x="874" y="-8" type="line"/>
      <point x="1022" y="-8" type="line"/>
      <point x="1532" y="1204" type="line"/>
      <point x="1649" y="1222" type="line"/>
      <point x="1658" y="1292" type="line"/>
      <point x="1294" y="1292" type="line"/>
      <point x="1287" y="1222" type="line"/>
      <point x="1417" y="1204" type="line"/>
      <point x="1075" y="350" type="line"/>
      <point x="966" y="70" type="line"/>
      <point x="998" y="66" type="line"/>
      <point x="979" y="376" type="line"/>
      <point x="905" y="1206" type="line"/>
      <point x="1046" y="1222" type="line"/>
      <point x="1058" y="1292" type="line"/>
      <point x="646" y="1292" type="line"/>
      <point x="638" y="1222" type="line"/>
    </contour>
    <contour>
      <point x="677" y="0" type="move" name="bottom"/>
    </contour>
    <contour>
      <point x="859" y="1292" type="move" name="top"/>
    </contour>
  </outline>
</glyph>
<glyph name="x.sc" format="1">
  <advance width="1094"/>
  <outline>
    <contour>
      <point x="-32" y="62" type="line"/>
      <point x="-39" y="0" type="line"/>
      <point x="348" y="0" type="line"/>
      <point x="355" y="62" type="line"/>
      <point x="213" y="84" type="line"/>
      <point x="529" y="560" type="line"/>
      <point x="636" y="660" type="line"/>
      <point x="1028" y="1206" type="line"/>
      <point x="1145" y="1222" type="line"/>
      <point x="1150" y="1292" type="line"/>
      <point x="767" y="1292" type="line"/>
      <point x="761" y="1222" type="line"/>
      <point x="894" y="1204" type="line"/>
      <point x="594" y="748" type="line"/>
      <point x="487" y="652" type="line"/>
      <point x="76" y="82" type="line"/>
    </contour>
    <contour>
      <point x="586" y="62" type="line"/>
      <point x="581" y="0" type="line"/>
      <point x="1030" y="0" type="line"/>
      <point x="1033" y="62" type="line"/>
      <point x="906" y="84" type="line"/>
      <point x="636" y="660" type="line"/>
      <point x="594" y="748" type="line"/>
      <point x="418" y="1206" type="line"/>
      <point x="554" y="1222" type="line"/>
      <point x="561" y="1292" type="line"/>
      <point x="131" y="1292" type="line"/>
      <point x="123" y="1222" type="line"/>
      <point x="241" y="1202" type="line"/>
      <point x="487" y="652" type="line"/>
      <point x="529" y="560" type="line"/>
      <point x="726" y="82" type="line"/>
    </contour>
  </outline>
</glyph>
<glyph name="y.sc" format="1">
  <advance width="979"/>
  <outline>
    <contour>
      <point x="195" y="62" type="line"/>
      <point x="189" y="0" type="line"/>
      <point x="707" y="0" type="line"/>
      <point x="714" y="62" type="line"/>
      <point x="531" y="84" type="line"/>
      <point x="595" y="569" type="line"/>
      <point x="545" y="442" type="line"/>
      <point x="999" y="1206" type="line"/>
      <point x="1092" y="1222" type="line"/>
      <point x="1099" y="1292" type="line"/>
      <point x="757" y="1292" type="line"/>
      <point x="747" y="1222" type="line"/>
      <point x="875" y="1204" type="line"/>
      <point x="602" y="704" type="line"/>
      <point x="501" y="531" type="line"/>
      <point x="563" y="525" type="line"/>
      <point x="501" y="706" type="line"/>
      <point x="318" y="1204" type="line"/>
      <point x="467" y="1222" type="line"/>
      <point x="477" y="1292" type="line"/>
      <point x="55" y="1292" type="line"/>
      <point x="49" y="1222" type="line"/>
      <point x="145" y="1204" type="line"/>
      <point x="464" y="438" type="line"/>
      <point x="444" y="569" type="line"/>
      <point x="384" y="84" type="line"/>
    </contour>
    <contour>
      <point x="446" y="0" type="move" name="bottom"/>
    </contour>
    <contour>
      <point x="608" y="1292" type="move" name="top"/>
    </contour>
    <contour>
      <point x="147" y="1292" type="move" name="topleft"/>
    </contour>
  </outline>
</glyph>
<glyph name="z.sc" format="1">
  <advance width="979"/>
  <outline>
    <contour>
      <point x="-3" y="64" type="line"/>
      <point x="15" y="0" type="line"/>
      <point x="850" y="0" type="line"/>
      <point x="926" y="308" type="line"/>
      <point x="838" y="332" type="line"/>
      <point x="731" y="96" type="line"/>
      <point x="179" y="78" type="line"/>
      <point x="293" y="230" type="line"/>
      <point x="994" y="1232" type="line"/>
      <point x="977" y="1292" type="line"/>
      <point x="202" y="1292" type="line"/>
      <point x="156" y="996" type="line"/>
      <point x="242" y="980" type="line"/>
      <point x="319" y="1204" type="line"/>
      <point x="822" y="1210" type="line"/>
      <point x="686" y="1042" type="line"/>
    </contour>
    <contour>
      <point x="438" y="0" type="move" name="bottom"/>
    </contour>
    <contour>
      <point x="577" y="1292" type="move" name="top"/>
    </contour>
  </outline>
</glyph>
